<?xml version="1.0" encoding="UTF-8" standalone="no"?><!DOCTYPE svg PUBLIC "-//W3C//DTD SVG 1.1//EN" "http://www.w3.org/Graphics/SVG/1.1/DTD/svg11.dtd"><svg width="100%" height="100%" viewBox="0 0 10417 10417" version="1.1" xmlns="http://www.w3.org/2000/svg" xmlns:xlink="http://www.w3.org/1999/xlink" xml:space="preserve" xmlns:serif="http://www.serif.com/" style="fill-rule:evenodd;clip-rule:evenodd;stroke-linejoin:round;stroke-miterlimit:2;"><path id="background" d="M5208.33,0c2874.56,0 5208.33,2333.78 5208.33,5208.33c-0,2874.56 -2333.78,5208.33 -5208.33,5208.33c-2874.56,-0 -5208.33,-2333.78 -5208.33,-5208.33c-0,-2874.56 2333.78,-5208.33 5208.33,-5208.33Zm-1528.75,2848.33c224.584,0 429.584,20 615,59.584c185.417,39.583 343.75,104.583 475.834,195c132.083,90.416 234.583,210.416 307.5,360.416c72.916,150 109.166,335 109.166,555.417c0,237.917 -54.166,436.25 -162.083,595c-107.917,158.75 -267.917,288.75 -479.167,390c290.834,83.75 507.917,230.417 651.25,439.583c143.334,209.167 215,461.667 215,757.084c0,237.916 -46.25,444.166 -138.75,618.333c-92.5,174.167 -217.083,316.25 -373.75,426.25c-156.666,110.417 -335,191.667 -535.416,244.583c-201.667,52.917 -409.584,79.584 -617.917,79.167l-2287.92,0l0,-4720.42l2221.25,0Zm3038.33,3814.17c140.833,136.667 343.75,205 608.333,205c189.583,0 352.5,-47.5 489.167,-142.083c136.666,-94.584 220.416,-195 251.25,-300.834l826.25,0c-132.084,410 -335,702.917 -608.334,879.167c-273.333,176.25 -603.75,264.583 -991.666,264.583c-268.75,0 -511.25,-42.916 -727.084,-128.75c-215.833,-85.833 -398.75,-208.333 -548.75,-367.083c-150,-158.75 -265.833,-347.917 -347.083,-568.333c-81.25,-220.417 -122.083,-462.917 -122.083,-727.084c-0,-255.416 41.666,-493.333 125.416,-713.75c83.75,-220.416 202.917,-410.833 357.084,-571.666c154.166,-160.834 338.333,-287.5 552.083,-380c213.75,-92.5 450.833,-138.75 710.833,-138.75c290.834,-0 544.167,56.25 760.417,168.75c215.833,112.5 393.333,263.333 532.083,452.916c138.75,189.584 239.167,405.417 300.834,647.917c61.666,242.5 83.75,495.833 66.25,760.417l-2465.83,-0c12.917,302.916 90,523.333 230.834,659.583Zm-3110.83,99.167c97.917,0.416 195.417,-9.584 290.834,-29.584c92.5,-20 174.166,-52.916 244.583,-99.166c70.417,-46.25 126.667,-109.167 168.75,-188.334c41.667,-79.166 62.917,-180.833 62.917,-304.166c-0,-242.084 -68.334,-415.417 -205,-518.75c-136.667,-103.75 -317.5,-155.417 -542.084,-155.417l-1130.42,-0l-0,1295.83l1110.42,-0.416Zm4172.08,-1897.08c-112.5,-123.333 -283.334,-185 -512.5,-185c-150,0 -274.584,25.417 -373.334,75.834c-99.166,50.833 -178.333,113.333 -237.916,188.333c-59.584,75 -101.25,154.167 -125.417,237.917c-24.167,83.75 -38.75,158.75 -42.917,224.583l1527.08,-0c-44.584,-237.5 -122.917,-418.333 -235,-541.667Zm-4231.67,-105.833c185,-0 337.083,-44.167 456.25,-132.083c119.167,-88.334 178.75,-231.25 178.333,-429.584c0,-110 -20,-200.416 -59.583,-270.833c-39.583,-70.417 -92.5,-125.833 -158.75,-165.417c-66.25,-39.583 -142.083,-67.083 -227.917,-82.5c-88.333,-15.416 -177.916,-23.333 -267.916,-22.916l-971.25,-0l-0,1104.17l1050.83,-0.833Zm2778.75,-1670.83l1907.92,-0l-0,529.166l-1907.92,0l0,-529.166Z" style="fill:#fff;"/></svg>