<?xml version="1.0" encoding="UTF-8" standalone="no"?><!DOCTYPE svg PUBLIC "-//W3C//DTD SVG 1.1//EN" "http://www.w3.org/Graphics/SVG/1.1/DTD/svg11.dtd"><svg width="100%" height="100%" viewBox="0 0 2134 2134" version="1.1" xmlns="http://www.w3.org/2000/svg" xmlns:xlink="http://www.w3.org/1999/xlink" xml:space="preserve" xmlns:serif="http://www.serif.com/" style="fill-rule:evenodd;clip-rule:evenodd;stroke-linecap:round;stroke-linejoin:round;stroke-miterlimit:1.5;"><g><g><g><path d="M1296.7,1073.9l476.124,300.998l0,-614.707l-476.124,313.709Z" style="fill:#fff;fill-rule:nonzero;"/></g><g><path d="M360.513,760.196l0,614.707l476.124,-300.998l-476.124,-313.709Z" style="fill:#fff;fill-rule:nonzero;"/></g><g><g><path d="M1684.55,581.186l-1235.77,0c-44.046,0 -79,32.836 -85.621,75.117l703.506,463.502l703.505,-463.502c-6.62,-42.281 -41.575,-75.117 -85.621,-75.117Z" style="fill:#fff;fill-rule:nonzero;"/></g></g><g><path d="M1215.84,1127.22l-124.901,82.267c-7.415,4.855 -15.8,7.238 -24.274,7.238c-8.474,0 -16.86,-2.383 -24.274,-7.238l-124.901,-82.355l-554.154,350.517c6.797,41.928 41.575,74.499 85.444,74.499l1235.77,0c43.87,0 78.648,-32.571 85.444,-74.499l-554.153,-350.429Z" style="fill:#fff;fill-rule:nonzero;"/></g></g><circle cx="1066.67" cy="1066.67" r="1023.72" style="fill:none;stroke:#fff;stroke-width:70.83px;"/></g></svg>