<?xml version="1.0" encoding="UTF-8" standalone="no"?><!DOCTYPE svg PUBLIC "-//W3C//DTD SVG 1.1//EN" "http://www.w3.org/Graphics/SVG/1.1/DTD/svg11.dtd"><svg width="100%" height="100%" viewBox="0 0 4267 4267" version="1.1" xmlns="http://www.w3.org/2000/svg" xmlns:xlink="http://www.w3.org/1999/xlink" xml:space="preserve" xmlns:serif="http://www.serif.com/" style="fill-rule:evenodd;clip-rule:evenodd;stroke-linejoin:round;stroke-miterlimit:2;"><path d="M2133.33,0c-1178.67,0 -2133.33,954.667 -2133.33,2133.33c0,944 610.667,1741.33 1458.67,2024c106.666,18.667 146.666,-45.333 146.666,-101.333c0,-50.667 -2.666,-218.667 -2.666,-397.333c-536,98.666 -674.667,-130.667 -717.334,-250.667c-24,-61.333 -128,-250.667 -218.666,-301.333c-74.667,-40 -181.334,-138.667 -2.667,-141.334c168,-2.666 288,154.667 328,218.667c192,322.667 498.667,232 621.333,176c18.667,-138.667 74.667,-232 136,-285.333c-474.666,-53.334 -970.666,-237.334 -970.666,-1053.33c-0,-232 82.666,-424 218.666,-573.333c-21.333,-53.333 -96,-272 21.334,-565.333c-0,-0 178.666,-56 586.666,218.666c170.667,-48 352,-72 533.334,-72c181.333,0 362.666,24 533.333,72c408,-277.333 586.667,-218.666 586.667,-218.666c117.333,293.333 42.666,512 21.333,565.333c136,149.333 218.667,338.667 218.667,573.333c-0,818.667 -498.667,1000 -973.334,1053.33c77.334,66.666 144,194.666 144,394.666c0,285.334 -2.666,514.667 -2.666,586.667c-0,56 40,122.667 146.666,101.333c842.667,-282.666 1453.33,-1082.67 1453.33,-2024c-0,-1178.67 -954.667,-2133.33 -2133.33,-2133.33Z" style="fill:#fff;"/></svg>