<?xml version="1.0" encoding="UTF-8" standalone="no"?><!DOCTYPE svg PUBLIC "-//W3C//DTD SVG 1.1//EN" "http://www.w3.org/Graphics/SVG/1.1/DTD/svg11.dtd"><svg width="100%" height="100%" viewBox="0 0 3788 1429" version="1.1" xmlns="http://www.w3.org/2000/svg" xmlns:xlink="http://www.w3.org/1999/xlink" xml:space="preserve" xmlns:serif="http://www.serif.com/" style="fill-rule:evenodd;clip-rule:evenodd;stroke-linejoin:round;stroke-miterlimit:2;"><rect id="Artboard5" x="-0" y="0" width="3787.72" height="1428.41" style="fill:none;"/><clipPath id="_clip1"><rect x="-0" y="0" width="3787.72" height="1428.41"/></clipPath><g clip-path="url(#_clip1)"><g><ellipse cx="379.653" cy="403.405" rx="379.653" ry="399.437" style="fill:#fed961;"/><ellipse cx="1117.58" cy="751.618" rx="255.572" ry="268.89" style="fill:#fed961;"/><ellipse cx="443.898" cy="1226.44" rx="195.736" ry="205.936" style="fill:#fed961;"/></g><g><path d="M1697.04,1080.98l476.953,-0l0,90.234l-607.031,0l-0,-85.547l455.859,-676.758l-449.414,0l0,-90.82l581.25,0l0,82.617l-457.617,680.274Z" style="fill:#fff;fill-rule:nonzero;"/><path d="M2701.34,1171.21c-3.906,-19.14 -6.934,-36.035 -9.082,-50.683c-2.149,-14.649 -3.418,-29.395 -3.809,-44.239c-21.484,30.469 -49.511,55.957 -84.082,76.465c-34.57,20.508 -71.777,30.762 -111.621,30.762c-66.015,-0 -116.308,-16.895 -150.879,-50.684c-34.57,-33.789 -51.855,-80.371 -51.855,-139.746c-0,-60.547 24.512,-107.91 73.535,-142.09c49.023,-34.179 115.527,-51.269 199.512,-51.269l125.39,-0l0,-62.696c0,-37.109 -11.328,-66.503 -33.984,-88.183c-22.656,-21.68 -54.688,-32.52 -96.094,-32.52c-37.5,0 -67.773,9.375 -90.82,28.125c-23.047,18.75 -34.57,41.211 -34.57,67.383l-109.571,1.172l-1.172,-3.516c-2.734,-46.093 18.848,-88.281 64.746,-126.562c45.899,-38.281 105.176,-57.422 177.832,-57.422c71.875,0 129.688,18.262 173.438,54.785c43.75,36.524 65.625,89.16 65.625,157.91l-0,305.274c-0,22.656 1.172,44.531 3.516,65.625c2.343,21.094 6.64,41.797 12.89,62.109l-118.945,0Zm-191.602,-84.375c41.797,0 79.493,-10.742 113.086,-32.226c33.594,-21.485 55.469,-46.094 65.625,-73.829l0,-103.125l-129.492,0c-46.484,0 -83.691,11.719 -111.621,35.157c-27.93,23.437 -41.895,50.976 -41.895,82.617c0,28.125 8.79,50.391 26.368,66.797c17.578,16.406 43.554,24.609 77.929,24.609Z" style="fill:#fff;fill-rule:nonzero;"/><path d="M3096.26,1171.21l-115.43,0l0,-633.984l115.43,-0l-0,633.984Zm-0,-796.289l-115.43,0l0,-117.773l115.43,-0l-0,117.773Z" style="fill:#fff;fill-rule:nonzero;"/><path d="M3247.43,865.938c-0,-101.953 21.777,-184.18 65.332,-246.68c43.554,-62.5 104.59,-93.75 183.105,-93.75c37.11,0 70.02,6.836 98.731,20.508c28.711,13.672 53.222,33.594 73.535,59.765l-0,-348.632l115.429,-0l0,914.062l-88.476,0l-17.578,-80.273c-20.703,30.468 -46.289,53.515 -76.758,69.14c-30.469,15.625 -65.82,23.438 -106.055,23.438c-77.343,-0 -137.89,-28.028 -181.64,-84.082c-43.75,-56.055 -65.625,-129.785 -65.625,-221.192l-0,-12.304Zm115.429,12.304c0,64.063 13.086,115.332 39.258,153.809c26.172,38.477 66.797,57.715 121.875,57.715c34.375,-0 63.281,-7.813 86.719,-23.438c23.437,-15.625 42.578,-37.5 57.422,-65.625l-0,-295.898c-14.844,-26.172 -34.082,-46.973 -57.715,-62.402c-23.633,-15.43 -52.051,-23.145 -85.254,-23.145c-55.469,0 -96.387,22.852 -122.754,68.555c-26.367,45.703 -39.551,105.078 -39.551,178.125l0,12.304Z" style="fill:#fff;fill-rule:nonzero;"/></g></g></svg>